<svg id="Layer_1" data-name="Layer 1" xmlns="http://www.w3.org/2000/svg" viewBox="0 0 8120.25 1086.04"><defs><style>.cls-1{fill:#ea3b15;}.cls-2{fill:#67289a;}</style></defs><title>stuentaffairslogo</title><path class="cls-1" d="M3709.24,2900.82c.25,50.74-37.23,89-87.47,89s-88.23-37.74-88.23-88c0-50.49,37.48-88.74,87.46-89.25C3670.22,2812.08,3709,2850.84,3709.24,2900.82Z" transform="translate(-601.68 -2272.5)"/><path class="cls-1" d="M3081.91,2272.5V3350.64H4181.77V2272.5Zm583.72,859.35c-54.06,7.14-105.32,2-154.79-17.6C3390,3066.06,3336.67,2949.78,3377.47,2822a442.48,442.48,0,0,1,41.82-92.31c54.06-89.76,110.68-178,165.76-267.24,8.92-14.53,19.12-20.91,36.72-20.14,40.29,1.78,80.84,1,121.13,2h36.72c-51.77,79.05-103.28,159.12-152,233.58,34.18,3.06,69.88.25,101.5,10.2,81.6,25.75,127.25,86.95,143.82,168.81C3903.3,3005.88,3794.67,3114.76,3665.63,3131.85Z" transform="translate(-601.68 -2272.5)"/><path class="cls-1" d="M1836.44,2275.05V3353.19H2936.3V2275.05ZM2728,3115.78H2575V2699.11h-7.14s-169.84,232-171.88,234.09-5.86,4.08-14,4.08c-7.91,0-12-2-14-4.08s-169.07-233.32-169.07-233.32h-9.95v415.65h-153V2448.45h134.9L2377.83,2732H2386l209.11-283.56H2728Z" transform="translate(-601.68 -2272.5)"/><path class="cls-1" d="M601.68,2274.79V3352.93H1701.54V2274.79Zm845.61,612.77c0,36.72-38.76,253.21-304.48,253.21-212.43,0-279.24-168.81-285.87-253.21V2448.45H1010.2l2,439.11c1.28,38.25,29.33,114.49,130.57,114.49,101.49,0,140.25-76.24,147.14-114.49V2448.45h159.38C1448.56,2582.58,1447.29,2858.23,1447.29,2887.56Z" transform="translate(-601.68 -2272.5)"/><path class="cls-1" d="M5000.61,2680.75c0,45.39-45.39,90.78-73.95,96.65H4779V2584.11h147.65C4955.22,2590,5000.61,2635.36,5000.61,2680.75Z" transform="translate(-601.68 -2272.5)"/><path class="cls-1" d="M4327.38,2276.83V3355H5427.24V2276.83Zm832.1,421c-8.92,154.53-124.95,208.33-181.57,215.73H4773.4v204.51H4622.17V2442.33l355.74,5.61C5042.18,2466.81,5168.66,2543.31,5159.48,2697.84Z" transform="translate(-601.68 -2272.5)"/><path class="cls-1" d="M5726.88,2274.54v1084h-53.81v-1084Z" transform="translate(-601.68 -2272.5)"/><path class="cls-2" d="M6041.77,2333a148.85,148.85,0,0,1,40.5,1.5,127.93,127.93,0,0,1,52,20c2,1.67,3.5,2.33,4.5,2q2.5-2.51,13-11.5,13-11,13.5-11.5,1.5-1,7-1,6,0,7.5,1,2.5,1.5,3,7,.49,7,.5,52,0,56-3.5,58.5-2,1-14.5,1t-14.5-1q-3-1.5-4-10.5a117.75,117.75,0,0,0-9.5-29.5,70.7,70.7,0,0,0-16.5-22q-21.5-21-60-22.5-41-1.5-52,27a47.35,47.35,0,0,0-2.5,16,41,41,0,0,0,3.5,17.5q7.5,15.49,27,23,3.49,2,38.5,9,36,7.5,40,9a110.41,110.41,0,0,1,39.5,18.5q36,26.51,43.5,72.5,2,14,0,35a129.15,129.15,0,0,1-11.5,36.5q-10,20.51-26.5,33-23,17.51-55.5,22-12.5,2-38.5.5a21.83,21.83,0,0,0-4-.5q-43-4.5-69-21.5-3-2-4.5-1.5-2.51,2.51-13,11.5-13,11-13.5,11.5-1.5,1-7,1-6,0-7.5-1-2.51-1.5-3-7-.5-7-.5-51.5,0-54.49,1-56a10.57,10.57,0,0,1,2-2.5q2.5-1.5,14.5-1.5,13,0,15,1,3.49,2,3.5,10.5,1.5,27,19,44.5,13,13,36,20.5a143.37,143.37,0,0,0,59,6.5c2.67-.33,5-.67,7-1q14-3,23-12,10-10,13-27,4-25.5-14-43.5a40.37,40.37,0,0,0-19.5-12q-2-1-40-9.5-36-7-41-9-37-10.5-58-39.5a98.77,98.77,0,0,1-20.5-64q1.5-35.51,21-61,18.49-25,54-34.5A153.42,153.42,0,0,1,6041.77,2333Zm220.84,13.5v-3h337.5v3l5.5,63.5q4.5,62.51,5,63.5v3h-18q-18,0-18-.5a176.85,176.85,0,0,0-2.5-26q-3-22.5-8.5-37-7.5-17.51-25.5-26-7.5-4-20-6-4.5-1-25.5-1.5h-19.5V2645h76.5v36h-8l-59-1q-51.51-.49-102.5,0l-59,1h-8v-36h76.5V2379.5h-19.5q-21,.49-25.5,1.5-23.51,4.5-36,17.5-8,8-13,24-4,14.51-6.5,44.5-1,8.51-1,9t-18,.5h-18v-3l5.5-63.5Q6262.11,2347.5,6262.61,2346.5ZM6651,2356v-18h6.5l48,1q41.49.49,83,0l47.5-1h6.5v36h-54v108q.49,112,2,119a16.17,16.17,0,0,0,1,4q4,19,16.5,29.5,20.49,16.5,61.5,16Q6917,2649,6940,2626q14.49-15,20-42.5.49-4.5,1-107.5V2374h-54v-36h5l36.5,1q32,.49,64,0l36.5-1h5v36h-54v99.5q0,101.51-.5,105.5-3,34.5-23.5,60.5-22.5,29-62,40a172.89,172.89,0,0,1-45.5,7q-49,1-85-13.5a145.63,145.63,0,0,1-25-12.5,113,113,0,0,1-30.5-27q-19.5-25.5-22.5-56-.51-3.49-.5-104.5v-99h-54Zm442.38,0v-18h110.5q113.51,0,118,.5,41.51,3,74,19.5,64,32.51,81,106,1,5.51,2,11,8.51,48.49-4,91.5-19,65-77,94-27.49,14.51-66.5,19.5-5.51.49-122.5,1h-115.5v-36h54V2374h-54Zm205,18.5q-3.49-.49-38.5-.5h-32v271h36.5q39.49-.49,43-1,43.5-5.51,66-30.5,19-21.49,22-66a695.07,695.07,0,0,0,0-74.5,21.83,21.83,0,0,1-.5-4q-5-56-39.5-78-4.5-2.51-9.5-5Q7326.89,2377,7298.39,2374.5Zm235.92-15.5v-18h310.5v2q.49,2,8,64.5,6.49,61,7.5,64.5v2h-36l-1-8.5q-4.5-32.51-12-49.5-15.5-31.5-57.5-37.5-13.5-1.5-50.5-1.5h-31.5v109.5h9q23,0,33.5-5.5a23.92,23.92,0,0,0,12.5-11q7-11.51,7-35.5V2428h36v153h-36v-6.5q0-24-7-35.5a23.92,23.92,0,0,0-12.5-11q-10.5-5.51-33.5-5.5h-9V2645h32.5q35.5,0,40-.5,51-3.49,72-33,2.5-3,6.5-11.5,9-17.51,15.5-55,1-10,2-12v-1.5h36v1.5q-.5,1-11.5,73-11,72.49-11.5,73.5v1.5h-319v-36h54V2377h-54Zm377.93-3v-18h138.5l2,1q1.5.49,88.5,107.5,88.5,109,87,107.5l1.5,1.5V2374h-54v-36h5l36.5,1q32,.49,64,0,36-1,36.5-1h5v36h-54v150q0,149.51-1,151.5a7.6,7.6,0,0,1-4,4.5q-2,1-14.5,1t-14.5-1q-1-.49-114.5-139.5Q8005.75,2398,8006.74,2400l-1.5-1.5V2645h54v36h-5l-36.5-1q-32-.49-64,0l-36.5,1h-5v-36h54V2374h-54Zm461.69-9.5v-3h337.5v3l5.5,63.5q4.5,62.51,5,63.5v3h-18q-18,0-18-.5a175.47,175.47,0,0,0-2.5-26q-3-22.5-8.5-37-7.5-17.51-25.5-26-7.5-4-20-6-4.5-1-25.5-1.5h-19.5V2645h76.5v36h-8l-59-1q-51.49-.49-102.5,0l-59,1h-8v-36h76.5V2379.5h-19.5q-21,.49-25.5,1.5-23.49,4.5-36,17.5-8,8-13,24-4,14.51-6.5,44.5c-.66,5.67-1,8.67-1,9s-6,.5-18,.5h-18v-3l5.5-63.5Q8373.43,2347.5,8373.93,2346.5Zm-2260.16,558h30.5q6.49,2.51,7.5,5.5l120,304.5,1,2.5h53.5v36h-6l-43-1q-36.5-.49-79,0l-48.5,1h-6.5v-36h21.5l21.5-.5-9-22.5-9-22.5h-61.5q-61.5,0-61.5.5l-9,22.5-8.5,22q0,.49,21.5.5h21v36h-5l-37-1q-32.51-.49-60,0l-31.5,1h-4.5v-36h53.5l1-2.5,120-304.5Q6108.27,2907.5,6113.77,2904.5Zm17,171-23.5-60h-.5l-47,120h47.5l47-.5ZM6396.34,2931v-18h302.5v2q1,3.49,7.5,64.5,7.5,62.51,8,64.5v2h-36a90,90,0,0,0-1.5-10.5q-2.51-20-5.5-30.5-10-39-44-50.5a53.4,53.4,0,0,0-11-3q-10-2-49-2.5h-33.5v116h8q29,0,40-11,9.49-9.49,11-37.5v-10h36v153h-36v-10q-1.5-28-11-37.5-11-11-40-11h-8v116h67.5v36h-7l-54.5-1q-47.51-.49-89,0l-48,1h-6.5v-36h54V2949h-54Zm391.82,0v-18h302.5v2q1,3.49,7.5,64.5,7.5,62.51,8,64.5v2h-36a90,90,0,0,0-1.5-10.5q-2.51-20-5.5-30.5-10-39-44-50.5a53.57,53.57,0,0,0-11-3q-10-2-49-2.5h-33.5v116h8q29,0,40-11,9.49-9.49,11-37.5v-10h36v153h-36v-10q-1.5-28-11-37.5-11-11-40-11h-8v116h67.5v36h-7l-54.5-1q-47.51-.49-89,0l-48,1h-6.5v-36h54V2949h-54ZM7362,2904.5h30.5q6.51,2.51,7.5,5.5l120,304.5,1,2.5h53.5v36h-6l-43-1q-36.49-.49-79,0l-48.5,1h-6.5v-36H7413l21.5-.5-9-22.5-9-22.5H7355q-61.5,0-61.5.5l-9,22.5-8.5,22q0,.49,21.5.5h21v36h-5l-37-1q-32.49-.49-60,0l-31.5,1h-4.5v-36H7234l1-2.5L7355,2910Q7356.47,2907.5,7362,2904.5Zm17,171-23.5-60h-.5l-47,120h47.5l47-.5ZM7635,2928v-18h7l49,1q43,.49,85.5,0l49.5-1h6.5v36h-57v271h57v36h-7l-49-1q-42.49-.49-85.5,0l-49.5,1H7635v-36h57V2946h-57Zm257.28,0v-18h103.5q105,.49,122.5,2.5,51,7,82,31.5,23.49,20,30,49,2,11,0,25.5a83.17,83.17,0,0,1-12.5,27.5,89.66,89.66,0,0,1-28,25.5q-9,5-24,11.5l-5,2,4,2q17,11,25.5,23.5a53.74,53.74,0,0,1,9.5,17.5q3.49,7.5,7,37.5,4,30.49,6,36,8,26,33,26,5.49,0,8-1,10-8.51,12-22.5,0-5.51,5-9,3.49-1.5,22-.5c2.33,0,3.66.17,4,.5a9.19,9.19,0,0,1,4.5,6q2,4.5-1,15.5-8,29.51-35.5,39-5,1.5-10,2.5-15.51,2.51-52.5-1-68.51-7-79.5-50a36.63,36.63,0,0,1-1.5-6.5q-.51-3.49-.5-31.5,0-30.49-2.5-39-7-22-26-30.5-7-3-33.5-3h-32V3217h54v36h-6.5l-47-1q-40.5-.49-81.5,0l-47,1h-6.5v-36h54V2946h-54Zm196.5,18.5q-4-.49-35-.5h-27v120h32q36-.49,47-3a68.79,68.79,0,0,0,23-9.5q9.49-7.5,12.5-23.5,2.49-17,.5-41-1.5-23-14.5-32-2.51-1.5-5.5-3Q8107.81,2948,8088.82,2946.5Zm374.65-41.5a148.85,148.85,0,0,1,40.5,1.5,127.93,127.93,0,0,1,52,20c2,1.67,3.5,2.33,4.5,2q2.5-2.51,13-11.5,13-11,13.5-11.5,1.5-1,7-1,6,0,7.5,1,2.5,1.5,3,7,.5,7,.5,52,0,56-3.5,58.5-2,1-14.5,1t-14.5-1q-3-1.5-4-10.5a117.75,117.75,0,0,0-9.5-29.5,70.7,70.7,0,0,0-16.5-22q-21.5-21-60-22.5-41-1.5-52,27a47.35,47.35,0,0,0-2.5,16,41,41,0,0,0,3.5,17.5q7.5,15.49,27,23,3.5,2,38.5,9,36,7.5,40,9a110.41,110.41,0,0,1,39.5,18.5q36,26.51,43.5,72.5,2,14,0,35a129.15,129.15,0,0,1-11.5,36.5q-10,20.51-26.5,33-23,17.51-55.5,22-12.5,2-38.5.5a21.83,21.83,0,0,0-4-.5q-43-4.5-69-21.5-3-2-4.5-1.5-2.5,2.51-13,11.5-13,11-13.5,11.5-1.5,1-7,1-6,0-7.5-1-2.5-1.5-3-7-.5-7-.5-51.5,0-54.49,1-56a10.57,10.57,0,0,1,2-2.5q2.5-1.5,14.5-1.5,13,0,15,1,3.5,2,3.5,10.5,1.5,27,19,44.5,13,13,36,20.5a143.37,143.37,0,0,0,59,6.5c2.67-.33,5-.67,7-1q14-3,23-12,10-10,13-27,4-25.5-14-43.5a40.37,40.37,0,0,0-19.5-12q-2-1-40-9.5-36-7-41-9-37-10.5-58-39.5a98.77,98.77,0,0,1-20.5-64q1.5-35.51,21-61,18.5-25,54-34.5A153.42,153.42,0,0,1,8463.47,2905Z" transform="translate(-601.68 -2272.5)"/></svg>