<svg width="283" height="40" viewBox="0 0 283 40" fill="none" xmlns="http://www.w3.org/2000/svg">
<path fill-rule="evenodd" clip-rule="evenodd" d="M89.7188 0H129.504V39H89.7188V0ZM112.037 10.7037C112.999 9.22096 113.977 7.71397 114.957 6.21712H113.629C113.029 6.20193 112.427 6.19758 111.825 6.19361C110.965 6.18746 110.105 6.18131 109.247 6.14332C108.611 6.11547 108.242 6.34626 107.919 6.87186C107.158 8.10537 106.389 9.33346 105.619 10.5612C104.375 12.5471 103.131 14.5327 101.923 16.5388C101.296 17.5813 100.779 18.7252 100.41 19.878C98.9343 24.4995 100.862 28.7058 105.235 30.4489C107.024 31.1594 108.878 31.3439 110.834 31.0856C115.502 30.4674 119.431 26.5288 118.333 21.1419C117.734 18.1807 116.083 15.9669 113.131 15.0355C112.347 14.7888 111.494 14.7591 110.636 14.7291C110.243 14.715 109.849 14.7012 109.459 14.6665C110.299 13.3831 111.162 12.0533 112.037 10.7037ZM109.219 19.5369C111 19.5184 112.402 20.9205 112.411 22.7285C112.42 24.5639 111.065 25.9475 109.247 25.9475C107.43 25.9475 106.056 24.5824 106.056 22.7654C106.056 20.939 107.412 19.5553 109.219 19.5369Z" fill="#EA3B15"/>
<path fill-rule="evenodd" clip-rule="evenodd" d="M44.6653 0.0925293H84.4513V39.0925H44.6653V0.0925293ZM76.9149 6.36499V30.5046H71.38V15.4322H71.1218C71.1218 15.4322 64.9781 23.8262 64.9043 23.9C64.8305 23.9738 64.6923 24.0476 64.3971 24.0476C64.111 24.0476 63.9634 23.9738 63.8896 23.9C63.8158 23.8262 57.7738 15.4601 57.7738 15.4601H57.4139V30.4955H51.8793V6.36499H56.7591L64.2496 16.6223H64.5447L72.1086 6.36499H76.9149Z" fill="#EA3B15"/>
<path fill-rule="evenodd" clip-rule="evenodd" d="M0 0.0830078H39.7858V39.083H0V0.0830078ZM30.6625 6.36487H24.8972V22.249C24.648 23.6326 23.2459 26.3905 19.5745 26.3905C15.9124 26.3905 14.8976 23.6326 14.8515 22.249L14.7777 6.36487H9.23376V22.249C9.47359 25.302 11.8904 31.4088 19.5745 31.4088C29.1866 31.4088 30.5887 23.5773 30.5887 22.249C30.5887 21.188 30.6347 11.2168 30.6625 6.36487Z" fill="#EA3B15"/>
<path fill-rule="evenodd" clip-rule="evenodd" d="M174.557 0.156982H134.771V39.157H174.557V0.156982ZM158.303 6.34661C160.628 7.0292 165.203 9.79647 164.871 15.3863C164.548 20.9762 160.351 22.9227 158.303 23.19H150.905V30.5878H145.435V6.14368L158.303 6.34661ZM151.126 18.2462V11.2998H156.447C156.958 11.4008 157.622 11.858 158.16 12.4968C158.698 13.136 159.106 13.9531 159.106 14.7681C159.106 15.5835 158.698 16.4006 158.16 17.0409C157.622 17.6808 156.958 18.1406 156.447 18.2462H151.126Z" fill="#EA3B15"/>
<path d="M185.396 0.0742188V39.2862H183.449V0.0742188H185.396Z" fill="#EA3B15"/>
<path d="M198.46 13.7825C195.269 13.7825 193.869 11.9105 193.869 10.9175C193.869 10.5431 194.081 10.2664 194.488 10.2664C195.66 10.3152 195.253 13.1476 198.525 13.1476C200.071 13.1476 201.129 12.2523 201.129 10.9664C201.129 6.91313 194.179 9.97339 194.179 5.08999C194.179 3.28313 195.644 1.91577 198.232 1.91577C200.999 1.91577 202.448 3.44591 202.448 4.56909C202.448 4.95977 202.22 5.22021 201.781 5.22021C200.56 5.22021 201.178 2.55062 198.183 2.55062C196.539 2.55062 195.66 3.51102 195.66 4.74815C195.66 8.54093 202.627 5.70855 202.627 10.6245C202.627 12.5779 200.739 13.7825 198.46 13.7825ZM209.345 13.6197C209.15 13.6197 209.02 13.5546 209.02 13.4243V13.3918C209.02 13.0825 209.622 13.0662 209.622 12.4802V2.76223H207.408C206.578 2.76223 206.48 4.52026 206.008 4.52026H205.862C205.699 4.52026 205.617 4.42259 205.65 4.19469L205.91 2.42039C205.943 2.1925 206.057 2.06228 206.317 2.06228H214.408C214.668 2.06228 214.782 2.1925 214.831 2.42039L215.189 4.21098C215.238 4.42259 215.14 4.52026 214.994 4.52026H214.831C214.359 4.52026 214.147 2.76223 213.333 2.76223H211.087V12.4802C211.087 13.0662 211.722 13.0825 211.722 13.3918V13.4243C211.722 13.5546 211.591 13.6197 211.38 13.6197H209.345ZM223.79 13.7825C221.072 13.7825 219.184 11.9593 219.184 9.12694V3.20174C219.184 2.63201 218.598 2.59945 218.598 2.30645V2.25761C218.598 2.12739 218.728 2.06228 218.923 2.06228H220.974C221.169 2.06228 221.3 2.12739 221.3 2.25761V2.30645C221.3 2.59945 220.681 2.63201 220.681 3.20174V9.12694C220.681 11.5361 222.032 13.0825 224.067 13.0825C225.776 13.0825 227.306 11.7151 227.306 9.12694V3.20174C227.306 2.63201 226.688 2.59945 226.688 2.30645V2.25761C226.688 2.12739 226.834 2.06228 227.03 2.06228H228.462C228.657 2.06228 228.804 2.12739 228.804 2.25761V2.30645C228.804 2.59945 228.136 2.63201 228.136 3.20174V9.14322C228.136 11.9593 226.346 13.7825 223.79 13.7825ZM233.26 13.6197C233.064 13.6197 232.918 13.5546 232.918 13.4243V13.3918C232.918 13.0825 233.52 13.0499 233.52 12.4802V3.20174C233.52 2.61573 232.918 2.59945 232.918 2.29017V2.25761C232.918 2.12739 233.064 2.06228 233.26 2.06228H236.825C240.422 2.06228 243.401 4.3412 243.401 7.74331C243.401 11.4221 240.764 13.6197 237.411 13.6197H233.26ZM235.734 12.9523H237.313C239.803 12.9523 241.887 11.2594 241.887 8.2642C241.887 4.87837 239.315 2.72967 236.564 2.72967H235.425C235.164 2.72967 234.969 2.89245 234.969 3.25057V12.057C234.969 12.6267 235.262 12.9523 235.734 12.9523ZM247.719 13.6197C247.524 13.6197 247.377 13.5546 247.377 13.4243V13.3918C247.377 13.0825 247.98 13.0825 247.98 12.4639V3.21801C247.98 2.59945 247.377 2.58317 247.377 2.29017V2.24133C247.377 2.12739 247.491 2.06228 247.67 2.06228H254.572C254.833 2.06228 254.93 2.1925 254.979 2.42039L255.37 4.03191C255.419 4.25981 255.337 4.35748 255.175 4.35748H255.093C254.589 4.35748 254.198 2.72967 253.351 2.72967H249.901C249.608 2.72967 249.445 2.89245 249.445 3.28313V7.36891H252.407C253.026 7.36891 253.01 6.40851 253.351 6.40851H253.417C253.547 6.40851 253.628 6.50618 253.628 6.68524V8.68743C253.628 8.85021 253.547 8.96416 253.417 8.96416H253.351C253.01 8.96416 253.026 8.03631 252.407 8.03631H249.445L249.428 12.2523C249.428 12.6267 249.624 12.9523 250.031 12.9523H253.856C254.719 12.9523 254.996 11.2756 255.565 11.2756H255.663C255.809 11.2756 255.891 11.4221 255.858 11.6012L255.468 13.2453C255.419 13.4894 255.305 13.6197 255.044 13.6197H247.719ZM269.623 2.06228C269.818 2.06228 269.949 2.14366 269.949 2.27389V2.30645C269.949 2.59945 269.297 2.61573 269.297 3.20174V13.1802C269.297 13.4569 269.151 13.6197 268.89 13.6197H268.484C268.321 13.6197 268.174 13.522 267.963 13.1964L261.012 3.72263V12.4314C261.012 13.0337 261.712 13.0825 261.712 13.3918V13.4243C261.712 13.5546 261.565 13.6197 261.37 13.6197H259.889C259.677 13.6197 259.563 13.5546 259.563 13.4243V13.3918C259.563 13.0825 260.182 13.0337 260.182 12.4314V3.21801C260.182 2.64828 259.563 2.64829 259.563 2.339V2.27389C259.563 2.14366 259.677 2.06228 259.889 2.06228H261.126C261.386 2.06228 261.565 2.17622 261.712 2.38784L268.467 11.7314V3.20174C268.467 2.61573 267.8 2.59945 267.8 2.30645V2.27389C267.8 2.14366 267.93 2.06228 268.142 2.06228H269.623ZM277.143 13.6197C276.948 13.6197 276.818 13.5546 276.818 13.4243V13.3918C276.818 13.0825 277.42 13.0662 277.42 12.4802V2.76223H275.206C274.376 2.76223 274.279 4.52026 273.806 4.52026H273.66C273.497 4.52026 273.416 4.42259 273.448 4.19469L273.709 2.42039C273.741 2.1925 273.855 2.06228 274.116 2.06228H282.206C282.466 2.06228 282.58 2.1925 282.629 2.42039L282.987 4.21098C283.036 4.42259 282.938 4.52026 282.792 4.52026H282.629C282.157 4.52026 281.945 2.76223 281.132 2.76223H278.885V12.4802C278.885 13.0662 279.52 13.0825 279.52 13.3918V13.4243C279.52 13.5546 279.39 13.6197 279.178 13.6197H277.143ZM203.441 35.5227C203.701 36.1249 204.222 36.1249 204.222 36.4342V36.4668C204.222 36.597 204.108 36.6621 203.913 36.6621H201.618C201.422 36.6621 201.308 36.597 201.308 36.4668V36.4342C201.308 36.1249 202.074 36.0924 201.862 35.5227L201.081 33.6018H195.807L195.09 35.5227C194.862 36.0924 195.644 36.1249 195.644 36.4342V36.4668C195.644 36.597 195.514 36.6621 195.302 36.6621H193.755C193.544 36.6621 193.43 36.597 193.43 36.4668V36.4342C193.43 36.1249 193.967 36.1412 194.195 35.5227L197.809 26.293C198.004 25.8047 197.304 25.5931 197.304 25.3326V25.2838C197.304 25.1861 197.369 25.1047 197.532 25.1047H198.476C198.867 25.1047 199.078 25.2512 199.241 25.6419L203.441 35.5227ZM196.083 32.9019H200.804L198.362 26.8628L196.083 32.9019ZM209.756 36.6621C209.561 36.6621 209.414 36.597 209.414 36.4668V36.4342C209.414 36.1249 210.017 36.1087 210.017 35.5227V26.2442C210.017 25.6419 209.414 25.6419 209.414 25.3326V25.3001C209.414 25.1698 209.528 25.1047 209.707 25.1047H216.56C216.821 25.1047 216.918 25.2349 216.967 25.4791L217.358 27.0906C217.407 27.3023 217.309 27.4162 217.146 27.4162H217.081C216.56 27.4162 216.186 25.7721 215.323 25.7721H211.97C211.677 25.7721 211.498 25.9349 211.498 26.293V30.916H214.509C215.063 30.916 215.112 29.9556 215.437 29.9556H215.535C215.665 29.9556 215.746 30.0532 215.746 30.2323V32.2345C215.746 32.3973 215.665 32.5112 215.535 32.5112H215.437C215.112 32.5112 215.063 31.5997 214.509 31.5997H211.498V35.5227C211.498 36.1087 212.133 36.1249 212.133 36.4342V36.4668C212.133 36.597 212.002 36.6621 211.807 36.6621H209.756ZM223.176 36.6621C222.981 36.6621 222.835 36.597 222.835 36.4668V36.4342C222.835 36.1249 223.437 36.1087 223.437 35.5227V26.2442C223.437 25.6419 222.835 25.6419 222.835 25.3326V25.3001C222.835 25.1698 222.948 25.1047 223.128 25.1047H229.981C230.241 25.1047 230.339 25.2349 230.388 25.4791L230.778 27.0906C230.827 27.3023 230.729 27.4162 230.567 27.4162H230.501C229.981 27.4162 229.606 25.7721 228.743 25.7721H225.39C225.097 25.7721 224.918 25.9349 224.918 26.293V30.916H227.93C228.483 30.916 228.532 29.9556 228.857 29.9556H228.955C229.085 29.9556 229.167 30.0532 229.167 30.2323V32.2345C229.167 32.3973 229.085 32.5112 228.955 32.5112H228.857C228.532 32.5112 228.483 31.5997 227.93 31.5997H224.918V35.5227C224.918 36.1087 225.553 36.1249 225.553 36.4342V36.4668C225.553 36.597 225.423 36.6621 225.227 36.6621H223.176ZM244.354 35.5227C244.615 36.1249 245.135 36.1249 245.135 36.4342V36.4668C245.135 36.597 245.021 36.6621 244.826 36.6621H242.531C242.336 36.6621 242.222 36.597 242.222 36.4668V36.4342C242.222 36.1249 242.987 36.0924 242.775 35.5227L241.994 33.6018H236.72L236.003 35.5227C235.776 36.0924 236.557 36.1249 236.557 36.4342V36.4668C236.557 36.597 236.427 36.6621 236.215 36.6621H234.669C234.457 36.6621 234.343 36.597 234.343 36.4668V36.4342C234.343 36.1249 234.88 36.1412 235.108 35.5227L238.722 26.293C238.917 25.8047 238.217 25.5931 238.217 25.3326V25.2838C238.217 25.1861 238.282 25.1047 238.445 25.1047H239.389C239.78 25.1047 239.992 25.2512 240.154 25.6419L244.354 35.5227ZM236.996 32.9019H241.717L239.275 26.8628L236.996 32.9019ZM250.343 36.4668V36.4342C250.343 36.1412 250.929 36.1249 250.929 35.5389V26.2442C250.929 25.6582 250.343 25.6419 250.343 25.3326V25.3001C250.343 25.1698 250.474 25.1047 250.669 25.1047H252.704C252.899 25.1047 253.029 25.1698 253.029 25.3001V25.3326C253.029 25.6419 252.411 25.6582 252.411 26.2442V35.5389C252.411 36.1249 253.029 36.1412 253.029 36.4342V36.4668C253.029 36.597 252.899 36.6621 252.704 36.6621H250.669C250.474 36.6621 250.343 36.597 250.343 36.4668ZM267.634 35.5227C268.073 36.1412 268.659 36.1249 268.659 36.4342V36.4668C268.659 36.597 268.529 36.6621 268.334 36.6621H266.071C265.876 36.6621 265.746 36.597 265.746 36.4668V36.4342C265.746 36.1249 266.446 36.1249 266.071 35.5227L263.629 32.1531C263.499 32.1694 263.369 32.1694 263.222 32.1694L261.269 32.2019V35.5227C261.269 36.1087 261.904 36.1249 261.904 36.4342V36.4668C261.904 36.597 261.774 36.6621 261.578 36.6621H259.527C259.332 36.6621 259.202 36.597 259.202 36.4668V36.4342C259.202 36.1249 259.788 36.1087 259.788 35.5227V26.2442C259.788 25.6582 259.202 25.6419 259.202 25.3326V25.3001C259.202 25.1698 259.332 25.1047 259.527 25.1047H262.864C265.648 25.1047 267.764 26.2279 267.78 28.6859C267.78 30.1672 266.82 31.4206 265.029 31.9252L267.634 35.5227ZM263.076 31.5183C264.964 31.5183 266.266 30.5416 266.266 28.8975C266.266 26.7488 264.606 25.7721 262.783 25.7721H261.692C261.399 25.7721 261.269 25.9837 261.269 26.3256V30.7532C261.269 31.2904 261.513 31.5183 261.953 31.5183H263.076ZM278.108 36.8249C274.918 36.8249 273.518 34.9529 273.518 33.96C273.518 33.5856 273.729 33.3088 274.136 33.3088C275.308 33.3577 274.901 36.1901 278.173 36.1901C279.72 36.1901 280.778 35.2948 280.778 34.0088C280.778 29.9556 273.827 33.0158 273.827 28.1324C273.827 26.3256 275.292 24.9582 277.88 24.9582C280.648 24.9582 282.096 26.4884 282.096 27.6115C282.096 28.0022 281.868 28.2627 281.429 28.2627C280.208 28.2627 280.827 25.5931 277.831 25.5931C276.187 25.5931 275.308 26.5535 275.308 27.7906C275.308 31.5834 282.275 28.751 282.275 33.667C282.275 35.6203 280.387 36.8249 278.108 36.8249Z" fill="#5C348A"/>
</svg>
